<svg xmlns="http://www.w3.org/2000/svg" xmlns:xlink="http://www.w3.org/1999/xlink" width="2000" zoomAndPan="magnify" viewBox="0 0 1500 1499.999933" height="2000" preserveAspectRatio="xMidYMid meet" version="1.0"><defs><clipPath id="0e6b39ee03"><path d="M 330.261719 529.875 L 375.886719 529.875 L 375.886719 1145.683594 L 330.261719 1145.683594 Z M 330.261719 529.875 " clip-rule="nonzero"/></clipPath><clipPath id="0b99f49865"><path d="M 0.261719 0.875 L 45.886719 0.875 L 45.886719 616.683594 L 0.261719 616.683594 Z M 0.261719 0.875 " clip-rule="nonzero"/></clipPath><clipPath id="c02a68fc95"><rect x="0" width="46" y="0" height="617"/></clipPath><clipPath id="7c97866ee2"><path d="M 330.261719 529.898438 L 375.882812 529.898438 L 375.882812 1145.625 L 330.261719 1145.625 Z M 330.261719 529.898438 " clip-rule="nonzero"/></clipPath><clipPath id="4c3c071f82"><path d="M 1124.113281 529.875 L 1169.738281 529.875 L 1169.738281 1145.683594 L 1124.113281 1145.683594 Z M 1124.113281 529.875 " clip-rule="nonzero"/></clipPath><clipPath id="fc3c188918"><path d="M 0.113281 0.875 L 45.738281 0.875 L 45.738281 616.683594 L 0.113281 616.683594 Z M 0.113281 0.875 " clip-rule="nonzero"/></clipPath><clipPath id="0dc898e596"><rect x="0" width="46" y="0" height="617"/></clipPath><clipPath id="42b27daa37"><path d="M 1124.113281 529.898438 L 1169.734375 529.898438 L 1169.734375 1145.625 L 1124.113281 1145.625 Z M 1124.113281 529.898438 " clip-rule="nonzero"/></clipPath><clipPath id="b59e15fe18"><path d="M 254.453125 354.316406 L 1246 354.316406 L 1246 544.929688 L 254.453125 544.929688 Z M 254.453125 354.316406 " clip-rule="nonzero"/></clipPath><clipPath id="27b51a0851"><path d="M 749.996094 354.316406 L 1245.542969 544.585938 L 254.453125 544.585938 Z M 749.996094 354.316406 " clip-rule="nonzero"/></clipPath><clipPath id="27941b8c65"><path d="M 0.453125 0.316406 L 991.601562 0.316406 L 991.601562 190.800781 L 0.453125 190.800781 Z M 0.453125 0.316406 " clip-rule="nonzero"/></clipPath><clipPath id="22f09b889f"><path d="M 495.996094 0.316406 L 991.542969 190.585938 L 0.453125 190.585938 Z M 495.996094 0.316406 " clip-rule="nonzero"/></clipPath><clipPath id="e3ee9d1e8d"><rect x="0" width="992" y="0" height="191"/></clipPath><clipPath id="ec431debac"><path d="M 254.472656 354.316406 L 1245.203125 354.316406 L 1245.203125 544.816406 L 254.472656 544.816406 Z M 254.472656 354.316406 " clip-rule="nonzero"/></clipPath><clipPath id="c306f0b4d0"><path d="M 749.996094 354.316406 L 1245.519531 544.578125 L 254.472656 544.578125 Z M 749.996094 354.316406 " clip-rule="nonzero"/></clipPath><clipPath id="1340cab3a8"><path d="M 432.46875 940.464844 L 1067.53125 940.464844 L 1067.53125 1145.683594 L 432.46875 1145.683594 Z M 432.46875 940.464844 " clip-rule="nonzero"/></clipPath><clipPath id="4594233a22"><path d="M 0.46875 0.464844 L 635.53125 0.464844 L 635.53125 205.683594 L 0.46875 205.683594 Z M 0.46875 0.464844 " clip-rule="nonzero"/></clipPath><clipPath id="22be25c58f"><rect x="0" width="636" y="0" height="206"/></clipPath><clipPath id="8fb4503a65"><path d="M 432.46875 940.464844 L 1067.519531 940.464844 L 1067.519531 1145.679688 L 432.46875 1145.679688 Z M 432.46875 940.464844 " clip-rule="nonzero"/></clipPath><clipPath id="6de834c8f9"><path d="M 734.667969 867.441406 L 765.765625 867.441406 L 765.765625 893.78125 L 734.667969 893.78125 Z M 734.667969 867.441406 " clip-rule="nonzero"/></clipPath><clipPath id="16a4c0fd0f"><path d="M 0.667969 0.441406 L 31.765625 0.441406 L 31.765625 26.78125 L 0.667969 26.78125 Z M 0.667969 0.441406 " clip-rule="nonzero"/></clipPath><clipPath id="d0bb382990"><rect x="0" width="32" y="0" height="27"/></clipPath></defs><g clip-path="url(#0e6b39ee03)"><g transform="matrix(1, 0, 0, 1, 330, 529)"><g clip-path="url(#c02a68fc95)"><g clip-path="url(#0b99f49865)"><path fill="#1a6b3c" d="M 0.261719 0.875 L 45.886719 0.875 L 45.886719 616.628906 L 0.261719 616.628906 Z M 0.261719 0.875 " fill-opacity="1" fill-rule="nonzero"/></g></g></g></g><g clip-path="url(#7c97866ee2)"><path stroke-linecap="butt" transform="matrix(0.75, 0, 0, 0.75, 330.263297, 529.896918)" fill="none" stroke-linejoin="miter" d="M -0.0021042 0.00202552 L 60.826026 0.00202552 L 60.826026 821.017721 L -0.0021042 821.017721 Z M -0.0021042 0.00202552 " stroke="#000000" stroke-width="10" stroke-opacity="1" stroke-miterlimit="4"/></g><g clip-path="url(#4c3c071f82)"><g transform="matrix(1, 0, 0, 1, 1124, 529)"><g clip-path="url(#0dc898e596)"><g clip-path="url(#fc3c188918)"><path fill="#1a6b3c" d="M 0.113281 0.875 L 45.738281 0.875 L 45.738281 616.628906 L 0.113281 616.628906 Z M 0.113281 0.875 " fill-opacity="1" fill-rule="nonzero"/></g></g></g></g><g clip-path="url(#42b27daa37)"><path stroke-linecap="butt" transform="matrix(0.75, 0, 0, 0.75, 1124.112009, 529.896918)" fill="none" stroke-linejoin="miter" d="M 0.00169696 0.00202552 L 60.829827 0.00202552 L 60.829827 821.017721 L 0.00169696 821.017721 Z M 0.00169696 0.00202552 " stroke="#000000" stroke-width="10" stroke-opacity="1" stroke-miterlimit="4"/></g><g clip-path="url(#b59e15fe18)"><g clip-path="url(#27b51a0851)"><g transform="matrix(1, 0, 0, 1, 254, 354)"><g clip-path="url(#e3ee9d1e8d)"><g clip-path="url(#27941b8c65)"><g clip-path="url(#22f09b889f)"><path fill="#1a6b3c" d="M 0.453125 0.316406 L 991.492188 0.316406 L 991.492188 190.929688 L 0.453125 190.929688 Z M 0.453125 0.316406 " fill-opacity="1" fill-rule="nonzero"/></g></g></g></g></g></g><g clip-path="url(#ec431debac)"><g clip-path="url(#c306f0b4d0)"><path stroke-linecap="butt" transform="matrix(0.75, 0, 0, 0.75, 254.471584, 354.315564)" fill="none" stroke-linejoin="miter" d="M 660.699403 0.00112316 L 1321.397377 253.683437 L 0.00142936 253.683437 Z M 660.699403 0.00112316 " stroke="#000000" stroke-width="10" stroke-opacity="1" stroke-miterlimit="4"/></g></g><g clip-path="url(#1340cab3a8)"><g transform="matrix(1, 0, 0, 1, 432, 940)"><g clip-path="url(#22be25c58f)"><g clip-path="url(#4594233a22)"><path fill="#1a6b3c" d="M 0.46875 0.464844 L 635.371094 0.464844 L 635.371094 205.683594 L 0.46875 205.683594 Z M 0.46875 0.464844 " fill-opacity="1" fill-rule="nonzero"/></g></g></g></g><g clip-path="url(#8fb4503a65)"><path stroke-linecap="butt" transform="matrix(0.75, 0, 0, 0.75, 432.469244, 940.464163)" fill="none" stroke-linejoin="miter" d="M -0.0006588 0.000907674 L 846.733789 0.000907674 L 846.733789 273.620723 L -0.0006588 273.620723 Z M -0.0006588 0.000907674 " stroke="#000000" stroke-width="10" stroke-opacity="1" stroke-miterlimit="4"/></g><path stroke-linecap="butt" transform="matrix(0.75, 0, 0, 0.75, 653.958433, 606.218664)" fill="none" stroke-linejoin="miter" d="M 20.998133 170.109505 L 20.998133 46.000119 C 20.998133 32.192826 32.190842 21.000117 45.998135 21.000117 L 210.112732 21.000117 C 223.920025 21.000117 235.112735 32.192826 235.112735 46.000119 L 235.112735 204.187633 C 235.112735 217.994925 223.920025 229.187635 210.112732 229.187635 L 153.201269 229.187635 C 139.399185 229.187635 128.201267 240.380344 128.201267 254.187637 L 128.201267 343.145978 " stroke="#c8973a" stroke-width="42" stroke-opacity="1" stroke-miterlimit="4"/><g clip-path="url(#6de834c8f9)"><g transform="matrix(1, 0, 0, 1, 734, 867)"><g clip-path="url(#d0bb382990)"><g clip-path="url(#16a4c0fd0f)"><path fill="#c8973a" d="M 0.667969 0.441406 L 31.738281 0.441406 L 31.738281 26.78125 L 0.667969 26.78125 Z M 0.667969 0.441406 " fill-opacity="1" fill-rule="nonzero"/></g></g></g></g></svg>