<svg xmlns="http://www.w3.org/2000/svg" xmlns:xlink="http://www.w3.org/1999/xlink" width="2000" zoomAndPan="magnify" viewBox="0 0 1500 1499.999933" height="2000" preserveAspectRatio="xMidYMid meet" version="1.0"><defs><clipPath id="a4af99ffd6"><path d="M 138.265625 200.457031 L 1383.140625 200.457031 L 1383.140625 1445.332031 L 138.265625 1445.332031 Z M 138.265625 200.457031 " clip-rule="nonzero"/></clipPath><clipPath id="47c3b33eaa"><path d="M 760.703125 200.457031 C 416.941406 200.457031 138.265625 479.132812 138.265625 822.894531 C 138.265625 1166.65625 416.941406 1445.332031 760.703125 1445.332031 C 1104.464844 1445.332031 1383.140625 1166.65625 1383.140625 822.894531 C 1383.140625 479.132812 1104.464844 200.457031 760.703125 200.457031 Z M 760.703125 200.457031 " clip-rule="nonzero"/></clipPath><clipPath id="2f9c467cdb"><path d="M 0.265625 0.457031 L 1245.140625 0.457031 L 1245.140625 1245.332031 L 0.265625 1245.332031 Z M 0.265625 0.457031 " clip-rule="nonzero"/></clipPath><clipPath id="74cfd8a051"><path d="M 622.703125 0.457031 C 278.941406 0.457031 0.265625 279.132812 0.265625 622.894531 C 0.265625 966.65625 278.941406 1245.332031 622.703125 1245.332031 C 966.464844 1245.332031 1245.140625 966.65625 1245.140625 622.894531 C 1245.140625 279.132812 966.464844 0.457031 622.703125 0.457031 Z M 622.703125 0.457031 " clip-rule="nonzero"/></clipPath><clipPath id="44f2261cb0"><rect x="0" width="1246" y="0" height="1246"/></clipPath><clipPath id="ffb89dcf1f"><path d="M 138.265625 200.457031 L 1383.136719 200.457031 L 1383.136719 1445.328125 L 138.265625 1445.328125 Z M 138.265625 200.457031 " clip-rule="nonzero"/></clipPath><clipPath id="a5cb3f5bf1"><path d="M 760.703125 200.457031 C 416.941406 200.457031 138.265625 479.132812 138.265625 822.894531 C 138.265625 1166.65625 416.941406 1445.328125 760.703125 1445.328125 C 1104.464844 1445.328125 1383.136719 1166.65625 1383.136719 822.894531 C 1383.136719 479.132812 1104.464844 200.457031 760.703125 200.457031 Z M 760.703125 200.457031 " clip-rule="nonzero"/></clipPath><clipPath id="ada1da5452"><path d="M 330.261719 529.875 L 375.886719 529.875 L 375.886719 1145.683594 L 330.261719 1145.683594 Z M 330.261719 529.875 " clip-rule="nonzero"/></clipPath><clipPath id="83d200e745"><path d="M 0.261719 0.875 L 45.886719 0.875 L 45.886719 616.683594 L 0.261719 616.683594 Z M 0.261719 0.875 " clip-rule="nonzero"/></clipPath><clipPath id="201baca66b"><rect x="0" width="46" y="0" height="617"/></clipPath><clipPath id="38ae3ff103"><path d="M 330.261719 529.898438 L 375.882812 529.898438 L 375.882812 1145.625 L 330.261719 1145.625 Z M 330.261719 529.898438 " clip-rule="nonzero"/></clipPath><clipPath id="c4938e109c"><path d="M 1124.113281 529.875 L 1169.738281 529.875 L 1169.738281 1145.683594 L 1124.113281 1145.683594 Z M 1124.113281 529.875 " clip-rule="nonzero"/></clipPath><clipPath id="fb61931c66"><path d="M 0.113281 0.875 L 45.738281 0.875 L 45.738281 616.683594 L 0.113281 616.683594 Z M 0.113281 0.875 " clip-rule="nonzero"/></clipPath><clipPath id="fcce6ef912"><rect x="0" width="46" y="0" height="617"/></clipPath><clipPath id="81f2d2adbf"><path d="M 1124.113281 529.898438 L 1169.734375 529.898438 L 1169.734375 1145.625 L 1124.113281 1145.625 Z M 1124.113281 529.898438 " clip-rule="nonzero"/></clipPath><clipPath id="668b1a314d"><path d="M 254.453125 354.316406 L 1246 354.316406 L 1246 544.929688 L 254.453125 544.929688 Z M 254.453125 354.316406 " clip-rule="nonzero"/></clipPath><clipPath id="3a420e3c32"><path d="M 749.996094 354.316406 L 1245.542969 544.585938 L 254.453125 544.585938 Z M 749.996094 354.316406 " clip-rule="nonzero"/></clipPath><clipPath id="4ddf87ffa1"><path d="M 0.453125 0.316406 L 991.601562 0.316406 L 991.601562 190.800781 L 0.453125 190.800781 Z M 0.453125 0.316406 " clip-rule="nonzero"/></clipPath><clipPath id="1beb521050"><path d="M 495.996094 0.316406 L 991.542969 190.585938 L 0.453125 190.585938 Z M 495.996094 0.316406 " clip-rule="nonzero"/></clipPath><clipPath id="529d44cefa"><rect x="0" width="992" y="0" height="191"/></clipPath><clipPath id="525cb83f70"><path d="M 254.472656 354.316406 L 1245.203125 354.316406 L 1245.203125 544.816406 L 254.472656 544.816406 Z M 254.472656 354.316406 " clip-rule="nonzero"/></clipPath><clipPath id="808e281d94"><path d="M 749.996094 354.316406 L 1245.519531 544.578125 L 254.472656 544.578125 Z M 749.996094 354.316406 " clip-rule="nonzero"/></clipPath><clipPath id="c9b3bab74f"><path d="M 432.46875 940.464844 L 1067.53125 940.464844 L 1067.53125 1145.683594 L 432.46875 1145.683594 Z M 432.46875 940.464844 " clip-rule="nonzero"/></clipPath><clipPath id="b2e5e55053"><path d="M 0.46875 0.464844 L 635.53125 0.464844 L 635.53125 205.683594 L 0.46875 205.683594 Z M 0.46875 0.464844 " clip-rule="nonzero"/></clipPath><clipPath id="68420036ad"><rect x="0" width="636" y="0" height="206"/></clipPath><clipPath id="22c37984c8"><path d="M 432.46875 940.464844 L 1067.519531 940.464844 L 1067.519531 1145.679688 L 432.46875 1145.679688 Z M 432.46875 940.464844 " clip-rule="nonzero"/></clipPath><clipPath id="222eac796c"><path d="M 734.667969 867.441406 L 765.765625 867.441406 L 765.765625 893.78125 L 734.667969 893.78125 Z M 734.667969 867.441406 " clip-rule="nonzero"/></clipPath><clipPath id="17f227701e"><path d="M 0.667969 0.441406 L 31.765625 0.441406 L 31.765625 26.78125 L 0.667969 26.78125 Z M 0.667969 0.441406 " clip-rule="nonzero"/></clipPath><clipPath id="29882a2ccd"><rect x="0" width="32" y="0" height="27"/></clipPath></defs><g clip-path="url(#a4af99ffd6)"><g clip-path="url(#47c3b33eaa)"><g transform="matrix(1, 0, 0, 1, 138, 200)"><g clip-path="url(#44f2261cb0)"><g clip-path="url(#2f9c467cdb)"><g clip-path="url(#74cfd8a051)"><path fill="#fdf6e9" d="M 0.265625 0.457031 L 1245.140625 0.457031 L 1245.140625 1245.332031 L 0.265625 1245.332031 Z M 0.265625 0.457031 " fill-opacity="1" fill-rule="nonzero"/></g></g></g></g></g></g><g clip-path="url(#ffb89dcf1f)"><g clip-path="url(#a5cb3f5bf1)"><path stroke-linecap="butt" transform="matrix(0.75, 0, 0, 0.75, 138.266448, 200.457575)" fill="none" stroke-linejoin="miter" d="M 829.915694 -0.000724645 C 371.566667 -0.000724645 -0.00109712 371.567039 -0.00109712 829.916067 C -0.00109712 1288.265094 371.566667 1659.82765 829.915694 1659.82765 C 1288.264721 1659.82765 1659.827277 1288.265094 1659.827277 829.916067 C 1659.827277 371.567039 1288.264721 -0.000724645 829.915694 -0.000724645 Z M 829.915694 -0.000724645 " stroke="#000000" stroke-width="10" stroke-opacity="1" stroke-miterlimit="4"/></g></g><g clip-path="url(#ada1da5452)"><g transform="matrix(1, 0, 0, 1, 330, 529)"><g clip-path="url(#201baca66b)"><g clip-path="url(#83d200e745)"><path fill="#1a6b3c" d="M 0.261719 0.875 L 45.886719 0.875 L 45.886719 616.628906 L 0.261719 616.628906 Z M 0.261719 0.875 " fill-opacity="1" fill-rule="nonzero"/></g></g></g></g><g clip-path="url(#38ae3ff103)"><path stroke-linecap="butt" transform="matrix(0.75, 0, 0, 0.75, 330.263297, 529.896918)" fill="none" stroke-linejoin="miter" d="M -0.0021042 0.00202552 L 60.826026 0.00202552 L 60.826026 821.017721 L -0.0021042 821.017721 Z M -0.0021042 0.00202552 " stroke="#000000" stroke-width="10" stroke-opacity="1" stroke-miterlimit="4"/></g><g clip-path="url(#c4938e109c)"><g transform="matrix(1, 0, 0, 1, 1124, 529)"><g clip-path="url(#fcce6ef912)"><g clip-path="url(#fb61931c66)"><path fill="#1a6b3c" d="M 0.113281 0.875 L 45.738281 0.875 L 45.738281 616.628906 L 0.113281 616.628906 Z M 0.113281 0.875 " fill-opacity="1" fill-rule="nonzero"/></g></g></g></g><g clip-path="url(#81f2d2adbf)"><path stroke-linecap="butt" transform="matrix(0.75, 0, 0, 0.75, 1124.112009, 529.896918)" fill="none" stroke-linejoin="miter" d="M 0.00169696 0.00202552 L 60.829827 0.00202552 L 60.829827 821.017721 L 0.00169696 821.017721 Z M 0.00169696 0.00202552 " stroke="#000000" stroke-width="10" stroke-opacity="1" stroke-miterlimit="4"/></g><g clip-path="url(#668b1a314d)"><g clip-path="url(#3a420e3c32)"><g transform="matrix(1, 0, 0, 1, 254, 354)"><g clip-path="url(#529d44cefa)"><g clip-path="url(#4ddf87ffa1)"><g clip-path="url(#1beb521050)"><path fill="#1a6b3c" d="M 0.453125 0.316406 L 991.492188 0.316406 L 991.492188 190.929688 L 0.453125 190.929688 Z M 0.453125 0.316406 " fill-opacity="1" fill-rule="nonzero"/></g></g></g></g></g></g><g clip-path="url(#525cb83f70)"><g clip-path="url(#808e281d94)"><path stroke-linecap="butt" transform="matrix(0.75, 0, 0, 0.75, 254.471584, 354.315564)" fill="none" stroke-linejoin="miter" d="M 660.699403 0.00112316 L 1321.397377 253.683437 L 0.00142936 253.683437 Z M 660.699403 0.00112316 " stroke="#000000" stroke-width="10" stroke-opacity="1" stroke-miterlimit="4"/></g></g><g clip-path="url(#c9b3bab74f)"><g transform="matrix(1, 0, 0, 1, 432, 940)"><g clip-path="url(#68420036ad)"><g clip-path="url(#b2e5e55053)"><path fill="#1a6b3c" d="M 0.46875 0.464844 L 635.371094 0.464844 L 635.371094 205.683594 L 0.46875 205.683594 Z M 0.46875 0.464844 " fill-opacity="1" fill-rule="nonzero"/></g></g></g></g><g clip-path="url(#22c37984c8)"><path stroke-linecap="butt" transform="matrix(0.75, 0, 0, 0.75, 432.469244, 940.464163)" fill="none" stroke-linejoin="miter" d="M -0.0006588 0.000907674 L 846.733789 0.000907674 L 846.733789 273.620723 L -0.0006588 273.620723 Z M -0.0006588 0.000907674 " stroke="#000000" stroke-width="10" stroke-opacity="1" stroke-miterlimit="4"/></g><path stroke-linecap="butt" transform="matrix(0.75, 0, 0, 0.75, 653.958433, 606.218664)" fill="none" stroke-linejoin="miter" d="M 20.998133 170.109505 L 20.998133 46.000119 C 20.998133 32.192826 32.190842 21.000117 45.998135 21.000117 L 210.112732 21.000117 C 223.920025 21.000117 235.112735 32.192826 235.112735 46.000119 L 235.112735 204.187633 C 235.112735 217.994925 223.920025 229.187635 210.112732 229.187635 L 153.201269 229.187635 C 139.399185 229.187635 128.201267 240.380344 128.201267 254.187637 L 128.201267 343.145978 " stroke="#c8973a" stroke-width="42" stroke-opacity="1" stroke-miterlimit="4"/><g clip-path="url(#222eac796c)"><g transform="matrix(1, 0, 0, 1, 734, 867)"><g clip-path="url(#29882a2ccd)"><g clip-path="url(#17f227701e)"><path fill="#c8973a" d="M 0.667969 0.441406 L 31.738281 0.441406 L 31.738281 26.78125 L 0.667969 26.78125 Z M 0.667969 0.441406 " fill-opacity="1" fill-rule="nonzero"/></g></g></g></g></svg>